# xmcd
#
# Track frame offsets:
#	150
#	24670
#	41245
#	60490
#	78800
#	98215
#	122917
#	142260
#	163625
#	188602
#	205597
#	222590
#	253580
#
# Disc length: 4440 seconds
#
# Revision: 5
# Processed by: cddbd v1.5.2PL0 Copyright (c) Steve Scherf et al.
# Submitted via: EasyCDDAExtractor 16.1.0.1
#
DISCID=b911560d
DTITLE=許茹芸 - 芸開了
DYEAR=2002
DGENRE=Pop
TTITLE0=01 如果我離開
TTITLE1=02 愛是
TTITLE2=03 祝福了
TTITLE3=04 幸福一秒吧
TTITLE4=05 我倆一同飛去
TTITLE5=06 如果下個路口遇見你
TTITLE6=07 永恆的轉眼
TTITLE7=08 此時快樂的代價
TTITLE8=09 神秘電話
TTITLE9=10 我的藍色夏天
TTITLE10=11 不一樣了
TTITLE11=12 如果我離開(Jazz版)
TTITLE12=DATA
EXTD=YEAR: 2002
EXTT0=
EXTT1=
EXTT2=
EXTT3=
EXTT4=
EXTT5=
EXTT6=
EXTT7=
EXTT8=
EXTT9=
EXTT10=
EXTT11=
EXTT12=
PLAYORDER=
